# xmcd
#
# Track frame offsets:
#	150
#	12992
#	25295
#	37132
#	51455
#	62365
#	74298
#	87910
#	100181
#	114976
#	128414
#	142271
#	153844
#	166185
#	179519
#	192860
#	205428
#	218345
#	230860
#	243630
#	253328
#	267128
#	280262
#	288580
#	313026
#	326297
#	339319
#
# Disc length: 4709 seconds
#
# Revision: 0
# Processed by: cddbd v1.5.2PL0 Copyright (c) Steve Scherf et al.
# Submitted via: audiograbber 1.83.01
#
DISCID=9212631b
DTITLE=Various Artist - A Rhythm and Blues Chronology 3 [CD3)
DYEAR=2015
DGENRE=R&B
TTITLE0=Bill Samuels - Port Wine
TTITLE1=The Delmore Brothers - Freight Train Boogie
TTITLE2=Jay McShann - Voodoo Woman Blues
TTITLE3=Cousin Joe - Weddin' Day Blues
TTITLE4=Champion Jack Dupree - Let's Have A Ball
TTITLE5=The Delta Rhythm Boys - Just A Sittin' And Rockin'
TTITLE6=The Duke Of Iron and Chorus - Don't Stop The Carnival
TTITLE7=Henry 'Red' Allen - Get The Mop
TTITLE8=The Golden Gate Quartet - Atom And Evil
TTITLE9=Peggy Lee - Everything's Moving Too Fast
TTITLE10=Lucky Millinder - Shorty's Got To Go
TTITLE11=Johnny Alston Orchestra - Everything Will Be Allright
TTITLE12=The Ravens - Bye Bye Baby Blues
TTITLE13=Erskine Hawkins - Hawk's Boogie
TTITLE14=Sister Rosetta Tharpe - How Far From God
TTITLE15=Julia Lee and Her Boyfriends - Gotta Gimme Watcha Got
TTITLE16=Spade Cooley - Oklahoma Stomp
TTITLE17=Eddie Vinson and Orchestra - Old Maid Boogie
TTITLE18=The Melody Masters - My Baby
TTITLE19=Lightnin' Hopkins - I Feel So Bad
TTITLE20=Louis Jordan - Texas and Pacific
TTITLE21=Two Gospel Keys - You've Got To Move
TTITLE22=Luke Jones - Shuffin' Boogie
TTITLE23=Velma Nelson - If I Were A Itty Bitty Girl
TTITLE24=Georgia Peach - Here Am I Do Send Me
TTITLE25=Arthur 'Big Boy' Crudup - That's Alright
TTITLE26=T-Bone Walker - Come Back To Me Baby
EXTD=
EXTT0=
EXTT1=
EXTT2=
EXTT3=
EXTT4=
EXTT5=
EXTT6=
EXTT7=
EXTT8=
EXTT9=
EXTT10=
EXTT11=
EXTT12=
EXTT13=
EXTT14=
EXTT15=
EXTT16=
EXTT17=
EXTT18=
EXTT19=
EXTT20=
EXTT21=
EXTT22=
EXTT23=
EXTT24=
EXTT25=
EXTT26=
PLAYORDER=
